<svg width="22" height="19" viewBox="0 0 22 19" fill="none" xmlns="http://www.w3.org/2000/svg">
<path d="M15.9219 0.552185C13.9859 0.552185 12.2909 1.38468 11.2344 2.79187C10.1778 1.38468 8.48281 0.552185 6.54687 0.552185C5.00584 0.553922 3.52841 1.16687 2.43874 2.25655C1.34906 3.34622 0.736112 4.82365 0.734375 6.36469C0.734375 12.9272 10.4647 18.2391 10.8791 18.4584C10.9883 18.5172 11.1104 18.5479 11.2344 18.5479C11.3584 18.5479 11.4805 18.5172 11.5897 18.4584C12.0041 18.2391 21.7344 12.9272 21.7344 6.36469C21.7326 4.82365 21.1197 3.34622 20.03 2.25655C18.9403 1.16687 17.4629 0.553922 15.9219 0.552185ZM11.2344 16.9397C9.5225 15.9422 2.23437 11.3981 2.23437 6.36469C2.23586 5.2214 2.69069 4.12536 3.49912 3.31693C4.30755 2.5085 5.40359 2.05367 6.54687 2.05219C8.37031 2.05219 9.90125 3.02344 10.5406 4.58344C10.5971 4.72099 10.6933 4.83865 10.8168 4.92145C10.9403 5.00425 11.0857 5.04846 11.2344 5.04846C11.3831 5.04846 11.5284 5.00425 11.652 4.92145C11.7755 4.83865 11.8716 4.72099 11.9281 4.58344C12.5675 3.02062 14.0984 2.05219 15.9219 2.05219C17.0652 2.05367 18.1612 2.5085 18.9696 3.31693C19.7781 4.12536 20.2329 5.2214 20.2344 6.36469C20.2344 11.3906 12.9444 15.9412 11.2344 16.9397Z" fill="#151414"/>
</svg>
